# This file uses centimeters as units for non-parametric coordinates.

mtllib Stove_Vent.mtl
g default
v -0.872868 0.164853 0.938917
v 0.872868 0.164853 0.938917
v -0.872867 0.164853 -0.938917
v 0.872868 0.164853 -0.938917
v -0.872868 0.413957 0.647357
v -0.872868 0.603267 0.523800
v -0.872868 0.811479 0.522420
v 0.593821 0.413957 0.647357
v 0.475567 0.603267 0.523800
v 0.474246 0.811479 0.522421
v -0.872867 0.413957 -0.647357
v -0.872867 0.603267 -0.523800
v -0.872867 0.811479 -0.522421
v 0.593821 0.413957 -0.647357
v 0.475567 0.603267 -0.523800
v 0.474246 0.811479 -0.522421
v -0.872867 -0.000000 -0.938917
v 0.872868 -0.000000 -0.938917
v 0.872868 -0.000000 0.938917
v -0.872868 -0.000000 0.938917
v -0.872867 0.982045 0.437146
v -0.872868 0.896770 0.522420
v 0.388972 0.982045 0.437146
v 0.474246 0.896770 0.522421
v 0.388972 0.982045 -0.437146
v 0.474246 0.896770 -0.522421
v -0.872866 0.982045 -0.437146
v -0.872867 0.896770 -0.522421
v -0.872868 0.164853 0.000000
v -0.872868 -0.000000 0.000000
v 0.872868 -0.000000 -0.000000
v 0.872868 0.164853 -0.000000
v 0.593821 0.413957 -0.000000
v 0.475567 0.603267 -0.000000
v 0.474246 0.811479 -0.000000
v 0.474246 0.896770 -0.000000
v 0.388972 0.982045 -0.000000
v -0.872867 0.982045 -0.000000
v -0.872867 0.896770 -0.000000
v -0.872867 0.811479 -0.000000
v -0.872867 0.603267 -0.000000
v -0.872867 0.413957 -0.000000
v -0.215926 0.164853 0.938917
v -0.215926 -0.000000 0.938917
v -0.215925 -0.000000 0.000000
v -0.215924 -0.000000 -0.938917
v -0.215924 0.164853 -0.938917
v -0.215926 0.413957 -0.647357
v -0.215926 0.603267 -0.523800
v -0.215926 0.811479 -0.522421
v -0.215926 0.896770 -0.522421
v -0.215927 0.982045 -0.437146
v -0.215927 0.982045 -0.000000
v -0.215927 0.982045 0.437146
v -0.215927 0.896770 0.522421
v -0.215927 0.811479 0.522421
v -0.215927 0.603267 0.523800
v -0.215927 0.413957 0.647357
vt 0.625000 0.750000
vt 0.375000 1.000000
vt 0.625000 1.000000
vt 0.625000 0.000000
vt 0.375000 0.175008
vt 0.625000 0.574992
vt 0.375000 0.750000
vt 0.875000 0.000000
vt 0.625000 0.175008
vt 0.125000 0.000000
vt 0.375000 0.000000
vt 0.125000 0.175008
vt 0.375000 0.574992
vt 0.875000 0.175008
vt 0.375000 0.250000
vt 0.625000 0.250000
vt 0.375000 0.500000
vt 0.125000 0.250000
vt 0.625000 0.500000
vt 0.875000 0.250000
vt 0.375000 0.750000
vt 0.625000 0.750000
vt 0.625000 1.000000
vt 0.375000 1.000000
vt 0.389371 0.270404
vt 0.389371 0.479596
vt 0.610629 0.270404
vt 0.610629 0.479596
vt 0.625000 0.250000
vt 0.375000 0.250000
vt 0.625000 0.500000
vt 0.625000 0.250000
vt 0.375000 0.500000
vt 0.625000 0.500000
vt 0.375000 0.250000
vt 0.375000 0.500000
vt 0.250000 0.000000
vt 0.375000 0.875000
vt 0.375000 0.875000
vt 0.625000 0.875000
vt 0.625000 0.875000
vt 0.750000 0.000000
vt 0.750000 0.175008
vt 0.625000 0.375000
vt 0.750000 0.250000
vt 0.625000 0.375000
vt 0.625000 0.375000
vt 0.610629 0.375000
vt 0.389371 0.375000
vt 0.375000 0.375000
vt 0.375000 0.375000
vt 0.250000 0.250000
vt 0.375000 0.375000
vt 0.250000 0.175008
vt 0.475000 0.000000
vt 0.475000 1.000000
vt 0.475000 1.000000
vt 0.475000 0.875000
vt 0.475000 0.750000
vt 0.475000 0.750000
vt 0.475000 0.574992
vt 0.475000 0.500000
vt 0.475000 0.500000
vt 0.475000 0.500000
vt 0.477874 0.479596
vt 0.477874 0.375000
vt 0.477874 0.270404
vt 0.475000 0.250000
vt 0.475000 0.250000
vt 0.475000 0.250000
vt 0.475000 0.175008
vn -0.000000 -1.000000 -0.000000
vn -0.000000 -1.000000 0.000000
vn 0.000000 -1.000000 0.000000
vn 0.000000 -1.000000 0.000000
vn -0.000000 0.693826 0.720142
vn 0.000000 0.760292 0.649581
vn 0.000000 0.760292 0.649582
vn 0.000000 0.724707 0.689057
vn 0.000000 0.760292 -0.649582
vn 0.000000 0.693826 -0.720142
vn 0.000000 0.724707 -0.689057
vn 0.000000 0.760292 -0.649582
vn 0.665949 0.745997 0.000000
vn 0.665949 0.745997 0.000000
vn 0.727867 0.685719 0.000000
vn 0.701625 0.712546 0.000000
vn -1.000000 0.000000 -0.000001
vn -1.000000 0.000000 -0.000001
vn -1.000000 0.000000 -0.000001
vn -1.000000 0.000000 -0.000001
vn -1.000000 0.000000 -0.000001
vn -1.000000 0.000000 -0.000001
vn -1.000000 0.000000 -0.000001
vn -1.000000 0.000000 -0.000001
vn -0.000000 0.004701 0.999989
vn -0.000000 0.305889 0.952067
vn 0.000000 0.348099 0.937458
vn 0.000000 0.004707 0.999989
vn 0.000000 0.305889 -0.952067
vn 0.000000 0.348099 -0.937458
vn 0.000000 0.004701 -0.999989
vn 0.000000 0.004707 -0.999989
vn 0.999990 0.004506 0.000000
vn 0.940387 0.340105 0.000000
vn 0.952913 0.303243 0.000000
vn 0.999990 0.004500 0.000000
vn -0.000000 0.000000 -1.000000
vn -0.000000 0.000000 -1.000000
vn 0.000000 0.000000 -1.000000
vn 0.000000 0.000000 -1.000000
vn 1.000000 0.000000 0.000000
vn 1.000000 0.000000 0.000000
vn 1.000000 0.000000 0.000000
vn 1.000000 0.000000 0.000000
vn 0.000000 0.000000 1.000000
vn 0.000000 0.000000 1.000000
vn 0.000000 0.000000 1.000000
vn 0.000000 0.000000 1.000000
vn -1.000000 0.000000 -0.000001
vn -1.000000 0.000000 -0.000001
vn -1.000000 0.000000 -0.000001
vn -1.000000 0.000000 -0.000001
vn -0.000000 0.707107 0.707106
vn -0.000000 0.707107 0.707107
vn 0.000000 0.707107 0.707106
vn 0.000000 0.707107 0.707106
vn -1.000000 0.000009 -0.000001
vn -1.000000 0.000009 -0.000001
vn -1.000000 0.000009 -0.000001
vn -1.000000 0.000009 -0.000001
vn 0.707107 0.707107 0.000000
vn 0.707107 0.707107 0.000000
vn 0.707107 0.707107 0.000000
vn 0.707107 0.707107 0.000000
vn 0.000000 0.707107 -0.707107
vn 0.000000 0.707107 -0.707107
vn 0.000000 0.707107 -0.707107
vn 0.000000 0.707107 -0.707107
vn 0.000000 1.000000 0.000000
vn 0.000000 1.000000 -0.000000
vn 0.000000 1.000000 0.000000
vn 0.000000 1.000000 0.000000
vn -0.000000 0.000000 1.000000
vn 0.000000 0.000000 1.000000
vn 1.000000 0.000000 0.000000
vn 1.000000 0.000000 0.000000
vn 0.000000 0.000000 -1.000000
vn 0.000000 0.000000 -1.000000
vn -1.000000 0.000000 -0.000001
vn -1.000000 0.000000 -0.000001
vn -1.000000 0.000000 -0.000001
vn -1.000000 0.000000 -0.000001
vn 0.000000 -1.000000 0.000000
vn 0.000000 -1.000000 0.000000
vn 1.000000 0.000000 0.000000
vn 1.000000 0.000000 0.000000
vn 0.665949 0.745997 0.000000
vn 0.701625 0.712546 0.000000
vn 0.940387 0.340105 0.000000
vn 0.999990 0.004506 0.000000
vn 1.000000 0.000000 0.000000
vn 0.707107 0.707107 0.000000
vn 0.707107 0.707107 0.000000
vn 0.000000 1.000000 0.000000
vn 0.000000 1.000000 0.000000
vn -1.000000 0.000009 -0.000001
vn -1.000000 0.000009 -0.000001
vn -1.000000 0.000000 -0.000001
vn -1.000000 0.000000 -0.000001
vn -1.000000 0.000000 -0.000001
vn -1.000000 0.000000 -0.000001
vn -1.000000 0.000000 -0.000001
vn -0.000000 0.000000 1.000000
vn -0.000000 0.000000 1.000000
vn -0.000000 -1.000000 -0.000000
vn -0.000000 -1.000000 -0.000000
vn -0.000000 -1.000000 -0.000000
vn -0.000000 0.000000 -1.000000
vn -0.000000 0.000000 -1.000000
vn 0.000000 0.687550 -0.726137
vn -0.000000 0.760292 -0.649582
vn 0.000000 0.299829 -0.953993
vn 0.000000 0.004700 -0.999989
vn 0.000000 0.000000 -1.000000
vn 0.000000 0.707107 -0.707107
vn 0.000000 0.707107 -0.707107
vn 0.000000 1.000000 0.000000
vn 0.000000 1.000000 0.000000
vn 0.000000 1.000000 -0.000000
vn -0.000000 0.707107 0.707107
vn -0.000000 0.707107 0.707107
vn -0.000000 0.004700 0.999989
vn -0.000000 0.000000 1.000000
vn -0.000000 0.299829 0.953993
vn -0.000000 0.687550 0.726137
vn -0.000000 0.760292 0.649581
s 1
g pCube84
usemtl phong2SG
f 44/57/1 45/58/2 31/40/3 19/23/4
s 2
f 58/71/5 43/55/6 2/4/7 8/9/8
s 3
f 47/60/9 48/61/10 14/6/11 4/1/12
s 4
f 2/4/13 32/42/14 33/43/15 8/9/16
s 5
f 42/54/17 29/37/18 1/11/19 5/5/20
f 5/5/20 6/15/21 41/52/22 42/54/17
f 6/15/21 7/35/23 40/51/24 41/53/22
s 2
f 56/69/25 57/70/26 9/16/27 10/29/28
f 57/70/26 58/71/5 8/9/8 9/16/27
s 3
f 48/61/10 49/62/29 15/19/30 14/6/11
f 49/62/29 50/63/31 16/31/32 15/19/30
s 4
f 10/29/33 9/16/34 34/44/35 35/46/36
f 9/16/34 8/9/16 33/43/15 34/45/35
s 7
f 46/59/37 47/60/38 4/1/39 18/22/40
s 8
f 31/40/41 32/41/42 2/3/43 19/23/44
s 9
f 2/3/45 43/56/46 44/57/47 19/23/48
s 10
f 1/2/49 29/38/50 30/39/51 20/24/52
s 11
f 54/67/53 55/68/54 24/32/55 23/27/56
s 12
f 22/30/57 21/25/58 38/49/59 39/50/60
s 13
f 23/27/61 24/32/62 36/47/63 37/48/64
s 14
f 25/28/65 26/34/66 51/64/67 52/65/68
s 15
f 53/66/69 54/67/70 23/27/71 37/48/72
s 2
f 55/68/73 56/69/25 10/29/28 24/32/74
s 4
f 10/29/33 35/46/36 36/47/75 24/32/76
s 3
f 16/31/32 50/63/31 51/64/77 26/34/78
s 5
f 39/50/79 40/51/24 7/35/23 22/30/80
s 10
f 30/39/51 29/38/50 3/7/81 17/21/82
s 1
f 45/58/2 46/59/83 18/22/84 31/40/3
s 8
f 4/1/85 32/41/42 31/40/41 18/22/86
s 4
f 33/43/15 32/42/14 4/8/87 14/14/88
f 34/45/35 33/43/15 14/14/88 15/20/89
f 35/46/36 34/44/35 15/19/89 16/31/90
f 36/47/75 35/46/36 16/31/90 26/34/91
s 13
f 37/48/64 36/47/63 26/34/92 25/28/93
s 15
f 52/65/94 53/66/69 37/48/72 25/28/95
s 12
f 39/50/60 38/49/59 27/26/96 28/36/97
s 5
f 13/33/98 40/51/24 39/50/79 28/36/99
f 41/53/22 40/51/24 13/33/98 12/17/100
f 42/54/17 41/52/22 12/18/100 11/12/101
f 3/10/102 29/37/18 42/54/17 11/12/101
s 9
f 44/57/47 43/56/46 1/2/103 20/24/104
s 1
f 30/39/105 45/58/2 44/57/1 20/24/106
f 17/21/107 46/59/83 45/58/2 30/39/105
s 7
f 3/7/108 47/60/38 46/59/37 17/21/109
s 3
f 11/13/110 48/61/10 47/60/9 3/7/111
f 11/13/110 12/17/112 49/62/29 48/61/10
f 12/17/112 13/33/113 50/63/31 49/62/29
f 51/64/77 50/63/31 13/33/113 28/36/114
s 14
f 52/65/68 51/64/67 28/36/115 27/26/116
s 15
f 38/49/117 53/66/69 52/65/94 27/26/118
f 21/25/119 54/67/70 53/66/69 38/49/117
s 11
f 21/25/120 22/30/121 55/68/54 54/67/53
s 2
f 7/35/122 56/69/25 55/68/73 22/30/123
f 7/35/122 6/15/124 57/70/26 56/69/25
f 6/15/124 5/5/125 58/71/5 57/70/26
f 1/11/126 43/55/6 58/71/5 5/5/125
